<svg width="103" height="103" viewBox="0 0 103 103" fill="none" xmlns="http://www.w3.org/2000/svg">
<path fill-rule="evenodd" clip-rule="evenodd" d="M2.6424 51.42C2.6424 24.4812 24.4807 2.64285 51.4195 2.64285C78.3584 2.64285 100.197 24.4812 100.197 51.42C100.197 78.3588 78.3584 100.197 51.4195 100.197C24.4807 100.197 2.6424 78.3588 2.6424 51.42Z" fill="white"/>
<mask id="mask0_1_1114" style="mask-type:luminance" maskUnits="userSpaceOnUse" x="0" y="0" width="103" height="103">
<path d="M0 0H102.839V102.84H0V0Z" fill="white"/>
</mask>
<g mask="url(#mask0_1_1114)">
<path fill-rule="evenodd" clip-rule="evenodd" d="M37.3692 41.1016C37.3692 34.9381 42.3772 29.7296 48.307 29.7296C50.1183 29.7296 51.6418 30.1818 53.0318 31.1453V29.7296H58.7669V38.763H53.1596L52.8847 38.3802C51.7478 36.7911 50.3778 36.0216 48.7026 36.0216C45.9427 36.0216 43.78 38.2524 43.78 41.1016C43.78 43.9547 45.994 46.1848 48.8215 46.1848C50.5884 46.1848 51.9784 45.3864 52.7382 43.9361L52.9964 43.4422H59.88L59.4734 44.6542C58.4721 47.6319 56.4392 49.9481 53.8443 51.2648L58.9191 56.2439L62.5809 48.2948H70.3605V54.1012H66.6409L63.3138 60.7503L69.7959 67.235L65.3993 71.5744L59.4259 65.7108C57.2838 68.4175 55.8733 69.6006 53.7325 70.5602C52.0407 71.2924 50.1253 71.6881 48.2061 71.6881C41.4986 71.6881 36.1443 66.9524 36.1443 60.9205C36.1443 57.9319 37.6107 55.0023 40.0335 52.9733C40.8537 52.2501 41.2237 51.9771 42.8718 50.8511C39.5774 48.8587 37.3692 45.2368 37.3692 41.1016ZM51.4202 102.84C65.1539 102.84 78.0675 97.492 87.7784 87.7791C97.4913 78.0681 102.839 65.1546 102.839 51.4202C102.839 37.6865 97.4913 24.773 87.7784 15.0601C78.0675 5.3491 65.1539 0 51.4202 0C37.6839 0 24.7723 5.3491 15.0594 15.0601C5.34846 24.773 0 37.6865 0 51.4202C0 65.1546 5.34846 78.0681 15.0594 87.7791C24.7723 97.492 37.6839 102.84 51.4202 102.84Z" fill="#231F20"/>
</g>
<path fill-rule="evenodd" clip-rule="evenodd" d="M48.5454 65.7124C51.2522 65.7124 52.9993 64.4727 54.9167 61.2039L47.9262 54.3258C44.4872 56.0723 43.022 57.8779 43.022 60.3579C43.022 63.3447 45.5021 65.7124 48.5454 65.7124Z" fill="#231F20"/>
</svg>
